<!DOCTYPE svg PUBLIC "-//W3C//DTD SVG 1.1//EN" "http://www.w3.org/Graphics/SVG/1.1/DTD/svg11.dtd">
<!-- Uploaded to: SVG Repo, www.svgrepo.com, Transformed by: SVG Repo Mixer Tools -->
<svg width="800px" height="800px" viewBox="0 0 24 24" xmlns="http://www.w3.org/2000/svg" fill="#ffffff">
<g id="SVGRepo_bgCarrier" stroke-width="0"/>
<g id="SVGRepo_tracerCarrier" stroke-linecap="round" stroke-linejoin="round"/>
<g id="SVGRepo_iconCarrier">
<path d="M20 4h-3V3h-3a2 2 0 0 0-4 0H7v1H4v18h16zM8 4h3V2.615A.615.615 0 0 1 11.614 2h.771a.615.615 0 0 1 .615.615V4h3v2H8zm11 17H5V5h2v2h10V5h2zM7 18h5v1H7zm0-8h10v1H7zm0 4h10v1H7z"/>
<path fill="none" d="M0 0h24v24H0z"/>
</g>
</svg>